<mxfile host="app.diagrams.net" modified="2022-07-19T09:54:59.584Z" agent="5.0 (Macintosh; Intel Mac OS X 10_15_7) AppleWebKit/537.36 (KHTML, like Gecko) Chrome/103.0.0.0 Safari/537.36" etag="a56wY8gGm2X855RBQjJG" version="20.1.1" type="github">
  <diagram id="igDYwoRN_aJQ4tmGWE_O" name="Page-1">
    <mxGraphModel dx="1382" dy="835" grid="1" gridSize="10" guides="1" tooltips="1" connect="1" arrows="1" fold="1" page="1" pageScale="1" pageWidth="827" pageHeight="1169" background="#F1FAEE" math="0" shadow="0">
      <root>
        <mxCell id="0" />
        <mxCell id="1" parent="0" />
        <mxCell id="IQU_McNoChBknDCoL-2u-5" style="edgeStyle=orthogonalEdgeStyle;rounded=0;orthogonalLoop=1;jettySize=auto;html=1;exitX=0.5;exitY=1;exitDx=0;exitDy=0;labelBackgroundColor=#F1FAEE;strokeColor=#457B9D;fontColor=#1D3557;" edge="1" parent="1" source="IQU_McNoChBknDCoL-2u-1" target="IQU_McNoChBknDCoL-2u-2">
          <mxGeometry relative="1" as="geometry" />
        </mxCell>
        <mxCell id="IQU_McNoChBknDCoL-2u-1" value="切换是否需测试为”是“" style="rounded=1;whiteSpace=wrap;html=1;fillColor=#A8DADC;strokeColor=#457B9D;fontColor=#1D3557;" vertex="1" parent="1">
          <mxGeometry x="320" y="150" width="160" height="50" as="geometry" />
        </mxCell>
        <mxCell id="IQU_McNoChBknDCoL-2u-4" value="" style="edgeStyle=orthogonalEdgeStyle;rounded=0;orthogonalLoop=1;jettySize=auto;html=1;labelBackgroundColor=#F1FAEE;strokeColor=#457B9D;fontColor=#1D3557;" edge="1" parent="1" source="IQU_McNoChBknDCoL-2u-2" target="IQU_McNoChBknDCoL-2u-3">
          <mxGeometry relative="1" as="geometry" />
        </mxCell>
        <mxCell id="IQU_McNoChBknDCoL-2u-8" value="" style="edgeStyle=orthogonalEdgeStyle;rounded=0;orthogonalLoop=1;jettySize=auto;html=1;labelBackgroundColor=#F1FAEE;strokeColor=#457B9D;fontColor=#1D3557;" edge="1" parent="1" source="IQU_McNoChBknDCoL-2u-2" target="IQU_McNoChBknDCoL-2u-7">
          <mxGeometry relative="1" as="geometry" />
        </mxCell>
        <mxCell id="IQU_McNoChBknDCoL-2u-9" value="是" style="edgeLabel;html=1;align=center;verticalAlign=middle;resizable=0;points=[];labelBackgroundColor=#F1FAEE;fontColor=#1D3557;" vertex="1" connectable="0" parent="IQU_McNoChBknDCoL-2u-8">
          <mxGeometry x="0.025" y="-1" relative="1" as="geometry">
            <mxPoint as="offset" />
          </mxGeometry>
        </mxCell>
        <mxCell id="IQU_McNoChBknDCoL-2u-20" style="edgeStyle=orthogonalEdgeStyle;rounded=0;orthogonalLoop=1;jettySize=auto;html=1;entryX=1;entryY=0.5;entryDx=0;entryDy=0;exitX=1;exitY=0.5;exitDx=0;exitDy=0;labelBackgroundColor=#F1FAEE;strokeColor=#457B9D;fontColor=#1D3557;" edge="1" parent="1" source="IQU_McNoChBknDCoL-2u-2" target="IQU_McNoChBknDCoL-2u-3">
          <mxGeometry relative="1" as="geometry">
            <mxPoint x="640" y="710" as="targetPoint" />
            <Array as="points">
              <mxPoint x="560" y="300" />
              <mxPoint x="560" y="810" />
            </Array>
          </mxGeometry>
        </mxCell>
        <mxCell id="IQU_McNoChBknDCoL-2u-21" value="否" style="edgeLabel;html=1;align=center;verticalAlign=middle;resizable=0;points=[];labelBackgroundColor=#F1FAEE;fontColor=#1D3557;" vertex="1" connectable="0" parent="IQU_McNoChBknDCoL-2u-20">
          <mxGeometry x="-0.1468" y="1" relative="1" as="geometry">
            <mxPoint x="-41" y="-214" as="offset" />
          </mxGeometry>
        </mxCell>
        <mxCell id="IQU_McNoChBknDCoL-2u-2" value="是否显示测试类型？" style="rhombus;whiteSpace=wrap;html=1;fillColor=#A8DADC;strokeColor=#457B9D;fontColor=#1D3557;" vertex="1" parent="1">
          <mxGeometry x="320" y="260" width="160" height="80" as="geometry" />
        </mxCell>
        <mxCell id="IQU_McNoChBknDCoL-2u-3" value="调用接口提交修改" style="whiteSpace=wrap;html=1;fillColor=#A8DADC;strokeColor=#457B9D;fontColor=#1D3557;" vertex="1" parent="1">
          <mxGeometry x="340" y="780" width="120" height="60" as="geometry" />
        </mxCell>
        <mxCell id="IQU_McNoChBknDCoL-2u-11" value="" style="edgeStyle=orthogonalEdgeStyle;rounded=0;orthogonalLoop=1;jettySize=auto;html=1;entryX=1;entryY=0.5;entryDx=0;entryDy=0;exitX=1;exitY=0.5;exitDx=0;exitDy=0;labelBackgroundColor=#F1FAEE;strokeColor=#457B9D;fontColor=#1D3557;" edge="1" parent="1" source="IQU_McNoChBknDCoL-2u-7" target="IQU_McNoChBknDCoL-2u-3">
          <mxGeometry relative="1" as="geometry">
            <mxPoint x="580" y="480" as="targetPoint" />
            <Array as="points">
              <mxPoint x="560" y="440" />
              <mxPoint x="560" y="810" />
            </Array>
          </mxGeometry>
        </mxCell>
        <mxCell id="IQU_McNoChBknDCoL-2u-12" value="是" style="edgeLabel;html=1;align=center;verticalAlign=middle;resizable=0;points=[];labelBackgroundColor=#F1FAEE;fontColor=#1D3557;" vertex="1" connectable="0" parent="IQU_McNoChBknDCoL-2u-11">
          <mxGeometry x="-0.6483" y="-2" relative="1" as="geometry">
            <mxPoint x="-38" y="-29" as="offset" />
          </mxGeometry>
        </mxCell>
        <mxCell id="IQU_McNoChBknDCoL-2u-14" value="" style="edgeStyle=orthogonalEdgeStyle;rounded=0;orthogonalLoop=1;jettySize=auto;html=1;labelBackgroundColor=#F1FAEE;strokeColor=#457B9D;fontColor=#1D3557;" edge="1" parent="1" source="IQU_McNoChBknDCoL-2u-7" target="IQU_McNoChBknDCoL-2u-13">
          <mxGeometry relative="1" as="geometry" />
        </mxCell>
        <mxCell id="IQU_McNoChBknDCoL-2u-15" value="否" style="edgeLabel;html=1;align=center;verticalAlign=middle;resizable=0;points=[];labelBackgroundColor=#F1FAEE;fontColor=#1D3557;" vertex="1" connectable="0" parent="IQU_McNoChBknDCoL-2u-14">
          <mxGeometry x="-0.0889" relative="1" as="geometry">
            <mxPoint x="-1" as="offset" />
          </mxGeometry>
        </mxCell>
        <mxCell id="IQU_McNoChBknDCoL-2u-7" value="测试类型是否有值？" style="rhombus;whiteSpace=wrap;html=1;fillColor=#A8DADC;strokeColor=#457B9D;fontColor=#1D3557;" vertex="1" parent="1">
          <mxGeometry x="320" y="400" width="160" height="80" as="geometry" />
        </mxCell>
        <mxCell id="IQU_McNoChBknDCoL-2u-17" value="" style="edgeStyle=orthogonalEdgeStyle;rounded=0;orthogonalLoop=1;jettySize=auto;html=1;labelBackgroundColor=#F1FAEE;strokeColor=#457B9D;fontColor=#1D3557;" edge="1" parent="1" source="IQU_McNoChBknDCoL-2u-13" target="IQU_McNoChBknDCoL-2u-16">
          <mxGeometry relative="1" as="geometry" />
        </mxCell>
        <mxCell id="IQU_McNoChBknDCoL-2u-13" value="打开弹窗&lt;br&gt;选择测试类型" style="whiteSpace=wrap;html=1;fillColor=#A8DADC;strokeColor=#457B9D;fontColor=#1D3557;" vertex="1" parent="1">
          <mxGeometry x="340" y="540" width="120" height="60" as="geometry" />
        </mxCell>
        <mxCell id="IQU_McNoChBknDCoL-2u-19" style="edgeStyle=orthogonalEdgeStyle;rounded=0;orthogonalLoop=1;jettySize=auto;html=1;entryX=0.5;entryY=0;entryDx=0;entryDy=0;labelBackgroundColor=#F1FAEE;strokeColor=#457B9D;fontColor=#1D3557;" edge="1" parent="1" source="IQU_McNoChBknDCoL-2u-16" target="IQU_McNoChBknDCoL-2u-3">
          <mxGeometry relative="1" as="geometry" />
        </mxCell>
        <mxCell id="IQU_McNoChBknDCoL-2u-16" value="点击保存按钮" style="whiteSpace=wrap;html=1;fillColor=#A8DADC;strokeColor=#457B9D;fontColor=#1D3557;" vertex="1" parent="1">
          <mxGeometry x="340" y="660" width="120" height="60" as="geometry" />
        </mxCell>
        <mxCell id="IQU_McNoChBknDCoL-2u-22" style="edgeStyle=orthogonalEdgeStyle;rounded=0;orthogonalLoop=1;jettySize=auto;html=1;exitX=0.5;exitY=1;exitDx=0;exitDy=0;labelBackgroundColor=#F1FAEE;strokeColor=#457B9D;fontColor=#1D3557;" edge="1" parent="1" source="IQU_McNoChBknDCoL-2u-13" target="IQU_McNoChBknDCoL-2u-13">
          <mxGeometry relative="1" as="geometry" />
        </mxCell>
        <mxCell id="IQU_McNoChBknDCoL-2u-23" value="&lt;div style=&quot;text-align: left;&quot;&gt;&lt;span style=&quot;background-color: initial;&quot;&gt;弹窗内包含两行：&lt;/span&gt;&lt;/div&gt;&lt;div style=&quot;text-align: left;&quot;&gt;&lt;span style=&quot;background-color: initial;&quot;&gt;1. 是否需测试（不可选）&lt;/span&gt;&lt;/div&gt;&lt;div style=&quot;text-align: left;&quot;&gt;&lt;span style=&quot;background-color: initial;&quot;&gt;2. 测试类型&lt;/span&gt;&lt;/div&gt;" style="ellipse;whiteSpace=wrap;html=1;fillColor=#A8DADC;strokeColor=#457B9D;fontColor=#1D3557;" vertex="1" parent="1">
          <mxGeometry x="160" y="560" width="190" height="80" as="geometry" />
        </mxCell>
      </root>
    </mxGraphModel>
  </diagram>
</mxfile>
